<svg width="512" height="1024" viewBox="0 0 512 1024" fill="none" xmlns="http://www.w3.org/2000/svg">
<path fill-rule="evenodd" clip-rule="evenodd" d="M174.887 531.285C212.884 521.415 252.262 511.599 283.765 504.506C283.765 504.506 307.543 503.208 308.799 524.91C310.032 546.18 284.347 552.498 284.347 552.498L181.167 568.535C181.167 568.535 164.332 570.962 161.519 552.284C158.954 535.248 174.887 531.285 174.887 531.285Z" fill="#14214D"/>
<path fill-rule="evenodd" clip-rule="evenodd" d="M181.582 631.816H181.583C188.329 630.465 194.572 635.753 194.333 642.629C194.059 650.538 193.742 661.227 193.558 672.741C193.369 684.591 193.187 694.412 192.34 695.66C188.605 701.154 181.136 703.198 173.465 708.642C167.395 712.951 166.346 714.999 158.609 716.448C147.64 718.502 152.753 713.849 164.93 699.134C175.781 686.024 175.051 679.875 175.051 679.875L173.033 642.849C172.744 637.559 176.386 632.859 181.582 631.816Z" fill="#C99382"/>
<path fill-rule="evenodd" clip-rule="evenodd" d="M166.033 695.653C158.11 704.459 149.027 711.421 149.249 715.603C149.47 719.786 152.767 723.563 166.409 718.721C175.745 715.408 173.072 713.405 181.985 707.606C186.436 704.711 188.057 705.023 192.16 701.653C194.512 698.629 193.453 683.941 193.453 683.941L177.836 701.054C177.836 701.054 181.897 693.083 178.561 691.355C175.225 689.627 172.151 688.453 170.185 689.869C168.217 691.285 166.033 695.653 166.033 695.653Z" fill="#7D4556"/>
<path fill-rule="evenodd" clip-rule="evenodd" d="M158.302 552.575C163.423 614.749 169.252 675.583 169.252 675.583L195.574 675.566L199.686 550.337C199.686 550.337 197.379 535.967 177.046 533.351C158.346 530.945 158.302 552.575 158.302 552.575Z" fill="#14214D"/>
<path fill-rule="evenodd" clip-rule="evenodd" d="M347.484 532.913C345.092 507.572 344.456 494.544 341.616 489.783C280.542 491.529 265.328 490.727 265.328 490.727C265.328 490.727 264.705 499.689 261.89 527.282C261.89 527.282 280.695 561.546 304.958 561.546C326.835 561.546 347.484 532.913 347.484 532.913Z" fill="#14214D"/>
<path fill-rule="evenodd" clip-rule="evenodd" d="M341.616 489.783L340.46 478.29L265.676 479.187L265.328 490.698C265.328 490.698 304.906 492.222 341.616 489.783Z" fill="#14214D"/>
<path fill-rule="evenodd" clip-rule="evenodd" d="M202.824 435.053C202.824 435.053 189.913 450.699 204.444 462.285C219.262 474.098 231.709 457.757 231.709 457.757C231.709 457.757 240.881 446.982 251.564 433.583C259.912 423.113 266.356 415.112 271.06 407.903C276.134 400.125 275.215 389.822 268.408 384.396C258.064 376.148 248.792 379.017 242.71 385.973C236.794 392.738 229.096 402.11 222.741 409.71C210.525 424.323 202.824 435.053 202.824 435.053Z" fill="#ADC6FF"/>
<path fill-rule="evenodd" clip-rule="evenodd" d="M145.646 376.648C145.646 376.648 154.141 392.107 162.416 391.624C169.91 391.188 170.647 381.55 170.647 381.55C170.647 381.55 170.365 373.95 167.837 365.851C166.18 360.544 164.536 349.984 161.591 350.103C157.751 350.256 161.195 360.778 159.068 362.592C154.757 366.267 147.596 350.284 145.045 348.315C140.056 344.469 135.314 358.183 145.646 376.648Z" fill="#C99382"/>
<path d="M142.428 349.463C142.719 349.387 143.016 349.561 143.092 349.851C143.831 352.659 145.112 355.468 146.782 358.198C147.746 359.774 148.78 361.225 149.813 362.517L150.233 363.033C150.368 363.197 150.499 363.352 150.625 363.497L151.179 364.121C151.385 364.339 151.375 364.683 151.157 364.89C150.939 365.096 150.594 365.086 150.388 364.868L150.161 364.618L149.991 364.426C149.68 364.072 149.335 363.661 148.964 363.196C147.904 361.87 146.844 360.383 145.855 358.766C144.133 355.952 142.809 353.049 142.041 350.128C141.964 349.837 142.138 349.54 142.428 349.463Z" fill="#9B6160"/>
<path d="M140.087 353.145C140.38 353.082 140.67 353.268 140.733 353.562L140.802 353.843C140.865 354.084 140.946 354.367 141.046 354.69C141.333 355.617 141.718 356.672 142.214 357.833C143.634 361.162 145.655 364.674 148.383 368.209C148.566 368.447 148.522 368.789 148.284 368.972C148.047 369.155 147.705 369.111 147.522 368.874C144.736 365.263 142.669 361.671 141.214 358.26C140.703 357.063 140.305 355.974 140.007 355.012L139.864 354.534C139.822 354.385 139.783 354.246 139.75 354.118L139.67 353.791C139.607 353.498 139.793 353.209 140.087 353.145Z" fill="#9B6160"/>
<path d="M140.164 361.603C140.44 361.485 140.759 361.613 140.877 361.889C142.278 365.169 143.721 367.891 145.126 370.084L145.535 370.709C145.801 371.106 146.053 371.464 146.289 371.784L146.647 372.255L146.827 372.481L147.216 372.563C147.674 372.664 148.184 372.793 148.732 372.953C150.298 373.41 151.864 374.023 153.331 374.815C156.068 376.295 158.138 378.228 159.255 380.683C159.379 380.957 159.258 381.279 158.985 381.403C158.711 381.528 158.389 381.407 158.265 381.133C157.259 378.922 155.359 377.148 152.813 375.772C151.421 375.019 149.924 374.434 148.427 373.997C147.903 373.844 147.417 373.721 146.982 373.625L146.514 373.529C146.489 373.524 146.467 373.52 146.448 373.517C146.325 373.497 146.213 373.434 146.13 373.341L145.957 373.135C145.885 373.046 145.799 372.938 145.699 372.809L145.596 372.673C145.18 372.125 144.715 371.459 144.21 370.67C142.773 368.427 141.301 365.652 139.877 362.316C139.759 362.04 139.887 361.721 140.164 361.603Z" fill="#9B6160"/>
<path fill-rule="evenodd" clip-rule="evenodd" d="M225.879 434.926C225.879 434.926 238.054 451.815 224.274 462.451C210.06 473.419 197.631 457.758 197.631 457.758C197.631 457.758 189.157 446.521 178.653 432.72C172.237 424.293 165.343 414.847 161.32 407.271C156.964 399.069 160.447 395.233 167.338 389.914C175.521 383.599 179.545 381.823 186.166 388.269C192.48 394.414 199.84 403.725 205.87 410.683C217.369 423.951 225.879 434.926 225.879 434.926Z" fill="#ADC6FF"/>
<path fill-rule="evenodd" clip-rule="evenodd" d="M155.399 390.538L171.334 378.241L180.791 388.121L162.562 402.19L155.399 390.538Z" fill="#ADC6FF"/>
<path d="M159.125 362.051C159.424 362.082 159.641 362.349 159.61 362.648L159.575 363.016L159.517 363.747C159.51 363.835 159.504 363.924 159.498 364.016C159.402 365.446 159.36 366.904 159.401 368.26C159.472 370.59 159.789 372.305 160.353 373.056C160.533 373.296 160.484 373.637 160.244 373.817C160.004 373.998 159.663 373.949 159.483 373.709C158.738 372.716 158.392 370.845 158.314 368.293C158.272 366.897 158.315 365.405 158.413 363.943L158.471 363.156L158.528 362.535C158.556 362.266 158.776 362.064 159.037 362.049L159.125 362.051Z" fill="#9B6160"/>
<path fill-rule="evenodd" clip-rule="evenodd" d="M320.656 341.162C320.656 341.162 331.487 335.583 328.178 323.997C333.125 314.228 327.653 307.995 327.653 307.995C327.653 307.995 327.757 295.02 319.184 294.084C314.092 280.653 298.841 285.506 298.841 285.506C298.841 285.506 289.358 277.373 275.257 287.865C265.126 287.987 265.208 282.96 261.872 286.379C258.536 289.794 256.885 297.942 261.146 301.268C253.585 304.314 260.122 316.371 260.122 316.371C260.122 316.371 257.507 323.198 266.014 328.584C274.522 333.971 277.417 350.418 291.641 355.911C305.327 361.196 320.068 357.128 320.656 341.162Z" fill="#7D4556"/>
<path fill-rule="evenodd" clip-rule="evenodd" d="M314.61 365.357L312.041 342.952L282.323 345.971L281.595 365.515C281.271 374.242 288.204 381.517 296.937 381.613C297.104 381.614 297.269 381.616 297.437 381.617C306.366 381.719 315.036 374.278 314.61 365.357Z" fill="#C99382"/>
<path fill-rule="evenodd" clip-rule="evenodd" d="M306.643 308.636C306.643 308.636 304.466 316.447 310.462 318.71C308.831 328.849 313.298 328.211 313.298 328.211C313.298 328.211 320.888 319.573 325.295 327.743C329.482 335.506 320.861 346.1 313.553 343.972C300.095 363.01 275.374 362.593 267.949 349.189C263.435 341.044 265.897 329.714 265.574 324.308C264.782 311.02 267.443 307.16 267.443 307.16C267.443 307.16 272.431 308.522 278.182 304.696C283.861 309.422 292.595 305.561 292.595 305.561C292.595 305.561 297.874 313.153 306.643 308.636Z" fill="#C99382"/>
<path d="M318.906 328.905C320.573 328.675 321.695 329.144 322.285 330.092C322.578 330.562 322.677 331.024 322.682 331.363C322.685 331.674 322.437 331.929 322.126 331.932C321.815 331.936 321.56 331.687 321.557 331.377C321.555 331.225 321.496 330.953 321.33 330.687C320.985 330.133 320.304 329.848 319.059 330.019C317.848 330.185 316.794 331.031 316.132 332.216C315.855 332.711 315.68 333.22 315.634 333.63C315.6 333.929 315.641 334.087 315.651 334.093C316.76 334.813 317.596 335.795 317.821 336.83C318.11 338.156 317.392 339.377 315.677 340.312C315.404 340.46 315.063 340.36 314.914 340.087C314.765 339.814 314.866 339.473 315.139 339.324C316.45 338.61 316.893 337.856 316.722 337.069C316.57 336.372 315.922 335.61 315.039 335.037C313.253 333.876 315.79 329.331 318.906 328.905Z" fill="#9B6160"/>
<path d="M318.45 332.98C319.866 333.212 320.783 333.927 320.679 335.248C320.655 335.558 320.384 335.789 320.075 335.765C319.765 335.74 319.534 335.47 319.558 335.16C319.604 334.57 319.18 334.239 318.268 334.09C317.897 334.029 317.5 334.011 317.12 334.023L316.76 334.043L316.659 334.053C316.351 334.089 316.071 333.868 316.035 333.559C315.999 333.251 316.219 332.971 316.528 332.935L316.762 332.915C317.302 332.878 317.887 332.888 318.45 332.98Z" fill="#9B6160"/>
<path fill-rule="evenodd" clip-rule="evenodd" d="M285.82 325.666C285.885 331.085 290.332 335.426 295.752 335.362C301.171 335.296 305.512 330.851 305.448 325.43C305.382 320.011 300.936 315.67 295.516 315.734C290.097 315.8 285.756 320.246 285.82 325.666Z" fill="white"/>
<path d="M295.508 315.043C289.706 315.113 285.06 319.873 285.129 325.674C285.198 331.475 289.958 336.122 295.76 336.053C301.562 335.982 306.208 331.224 306.139 325.422C306.07 319.715 301.464 315.126 295.792 315.043L295.508 315.043ZM295.524 316.426C300.562 316.366 304.695 320.401 304.756 325.439C304.816 330.477 300.782 334.609 295.743 334.67C290.705 334.73 286.572 330.695 286.512 325.657C286.453 320.708 290.346 316.632 295.26 316.433L295.524 316.426Z" fill="#7D4556"/>
<path fill-rule="evenodd" clip-rule="evenodd" d="M262.009 325.033C262.074 330.452 266.52 334.793 271.939 334.729C277.358 334.663 281.699 330.217 281.635 324.797C281.57 319.378 277.123 315.037 271.704 315.101C266.286 315.166 261.943 319.613 262.009 325.033Z" fill="white"/>
<path d="M271.695 314.41C265.895 314.479 261.247 319.24 261.318 325.041C261.387 330.842 266.146 335.489 271.947 335.42C277.749 335.35 282.396 330.59 282.327 324.789C282.259 319.083 277.652 314.494 271.98 314.41L271.695 314.41ZM271.712 315.793C276.75 315.733 280.884 319.768 280.944 324.806C281.004 329.843 276.969 333.976 271.931 334.037C266.893 334.097 262.761 330.062 262.701 325.025C262.64 320.076 266.535 315.998 271.448 315.8L271.712 315.793Z" fill="#7D4556"/>
<path d="M283.532 323.888C283.79 324.061 283.859 324.41 283.686 324.668L283.515 324.929C283.377 325.143 283.224 325.386 283.058 325.655C282.584 326.422 282.11 327.238 281.669 328.066C281.295 328.765 280.962 329.442 280.679 330.085C279.729 332.24 279.44 333.824 279.903 334.444C280.475 335.211 281.277 335.675 282.269 335.887C283.194 336.084 284.201 336.049 285.164 335.867L285.434 335.812C285.595 335.777 285.716 335.745 285.791 335.722C286.088 335.631 286.403 335.797 286.494 336.094C286.585 336.391 286.418 336.706 286.121 336.797L285.936 336.849C285.79 336.887 285.6 336.93 285.372 336.973C284.275 337.18 283.126 337.22 282.034 336.987C280.791 336.722 279.749 336.118 279.001 335.117C278.193 334.033 278.534 332.163 279.65 329.631C279.945 328.961 280.29 328.259 280.676 327.536C281.13 326.686 281.615 325.85 282.1 325.064L282.461 324.489L282.751 324.042C282.924 323.784 283.273 323.715 283.532 323.888Z" fill="#9B6160"/>
<path fill-rule="evenodd" clip-rule="evenodd" d="M292.746 339.81C292.746 339.81 283.677 340.956 277.179 339.998C277.179 339.998 279.073 346.461 285.55 345.605C291.301 344.844 292.746 339.81 292.746 339.81Z" fill="white"/>
<path d="M292.672 339.224L291.901 339.312L291.121 339.391C290.714 339.43 290.281 339.469 289.826 339.506C287.097 339.729 284.329 339.837 281.751 339.769C280.102 339.725 278.596 339.609 277.265 339.413C276.839 339.35 276.49 339.75 276.612 340.164L276.678 340.37C276.747 340.567 276.849 340.826 276.988 341.131C277.31 341.837 277.724 342.543 278.24 343.204C279.975 345.425 282.421 346.615 285.628 346.191C288.113 345.862 290.042 344.765 291.469 343.146C292.074 342.459 292.547 341.724 292.904 340.988L293.069 340.629C293.19 340.351 293.27 340.127 293.314 339.973C293.431 339.565 293.093 339.171 292.672 339.224ZM291.822 340.508L291.841 340.473C291.528 341.117 291.112 341.763 290.582 342.364C289.337 343.777 287.663 344.729 285.473 345.019C282.713 345.384 280.664 344.387 279.172 342.476L278.951 342.182C278.667 341.784 278.422 341.371 278.213 340.954L278.097 340.711L278.16 340.72C279.259 340.841 280.45 340.917 281.72 340.951C284.345 341.02 287.154 340.91 289.922 340.684L291.235 340.567L291.822 340.508Z" fill="#7D4556"/>
<path d="M278.839 312.393C279.132 312.251 279.486 312.374 279.628 312.667C279.771 312.961 279.648 313.315 279.354 313.457C276.198 314.987 272.285 315.41 268.292 314.364C267.976 314.281 267.788 313.958 267.87 313.642C267.953 313.327 268.276 313.138 268.592 313.221C272.307 314.194 275.932 313.802 278.839 312.393Z" fill="#7D4556"/>
<path d="M282.99 321.737C283.998 321.67 285.067 321.73 286.112 321.87C286.373 321.905 286.613 321.942 286.826 321.98L287.103 322.032L286.819 323.386L286.4 323.31C286.264 323.288 286.106 323.264 285.929 323.241C284.967 323.112 283.985 323.057 283.081 323.117C282.53 323.153 282.032 323.231 281.601 323.354L281.35 323.433L280.897 322.126C281.511 321.913 282.214 321.788 282.99 321.737Z" fill="#7D4556"/>
<path d="M269.423 327.007C269.382 327.345 269.095 327.609 268.745 327.613C268.395 327.617 268.103 327.361 268.053 327.024L268.046 326.93C268.042 326.363 268.147 325.597 268.473 324.82C269.047 323.45 270.144 322.581 271.799 322.561C273.441 322.541 274.6 323.32 275.295 324.586C275.692 325.309 275.864 326.02 275.909 326.523C275.943 326.903 275.662 327.239 275.281 327.273C274.933 327.304 274.621 327.071 274.546 326.738L274.515 326.524C274.502 326.447 274.483 326.346 274.454 326.226C274.373 325.892 274.251 325.557 274.083 325.251C273.619 324.407 272.91 323.931 271.816 323.944C270.758 323.957 270.123 324.459 269.748 325.354C269.609 325.686 269.519 326.048 269.469 326.414C269.45 326.549 269.439 326.667 269.433 326.761L269.423 327.007Z" fill="#7D4556"/>
<path d="M293.032 326.724C292.99 327.062 292.704 327.326 292.354 327.33C292.004 327.334 291.712 327.077 291.662 326.74L291.655 326.647C291.651 326.08 291.756 325.314 292.082 324.537C292.656 323.166 293.753 322.298 295.408 322.278C297.05 322.258 298.209 323.036 298.904 324.302C299.301 325.025 299.473 325.736 299.518 326.24C299.552 326.62 299.271 326.956 298.89 326.99C298.542 327.021 298.23 326.787 298.155 326.455L298.124 326.241C298.111 326.163 298.091 326.062 298.063 325.943C297.981 325.608 297.86 325.274 297.691 324.968C297.228 324.124 296.519 323.648 295.425 323.661C294.367 323.674 293.732 324.176 293.357 325.071C293.218 325.402 293.127 325.765 293.077 326.131L293.05 326.376C293.044 326.448 293.04 326.511 293.038 326.563L293.037 326.632L293.032 326.724Z" fill="#7D4556"/>
<path d="M305.448 325.431L315.147 325.314" stroke="#7D4556" stroke-width="1.383"/>
<path d="M289.437 312.218C289.581 311.925 289.935 311.804 290.228 311.949C291.33 312.492 292.664 312.908 294.179 313.207C296.47 313.66 298.872 313.806 300.954 313.773L301.714 313.752C301.756 313.75 301.789 313.749 301.812 313.747C302.138 313.729 302.417 313.978 302.436 314.304C302.454 314.63 302.204 314.909 301.879 314.927L301.504 314.942C299.228 315.012 296.535 314.877 293.949 314.366C292.341 314.048 290.911 313.603 289.706 313.009C289.413 312.865 289.293 312.511 289.437 312.218Z" fill="#7D4556"/>
<path d="M285.581 351.724C285.861 351.732 286.087 351.943 286.123 352.211L286.127 352.318L286.126 352.372C286.122 352.655 286.126 353.02 286.144 353.435C286.172 354.045 286.227 354.645 286.314 355.203C286.501 356.386 286.82 357.231 287.217 357.57L287.304 357.634C287.564 357.803 287.639 358.152 287.47 358.412C287.301 358.673 286.952 358.747 286.692 358.578C285.898 358.063 285.45 356.944 285.203 355.378C285.108 354.775 285.05 354.135 285.021 353.486L285.004 352.985C285 352.828 284.999 352.681 285 352.547L285.003 352.27C285.012 351.96 285.271 351.715 285.581 351.724Z" fill="#9B6160"/>
<path d="M283.482 353.502C283.792 353.522 284.027 353.79 284.007 354.1L283.991 354.423C283.964 355.144 283.968 355.924 284.026 356.651C284.068 357.18 284.137 357.639 284.233 358.005C284.311 358.306 284.132 358.613 283.831 358.692C283.531 358.771 283.223 358.591 283.144 358.29C283.029 357.851 282.952 357.33 282.905 356.741C282.855 356.119 282.842 355.468 282.854 354.843L282.867 354.38C282.874 354.216 282.88 354.095 282.884 354.027C282.904 353.717 283.172 353.482 283.482 353.502Z" fill="#9B6160"/>
<path d="M288 354.237C288.303 354.168 288.604 354.358 288.673 354.661L288.71 354.813C288.734 354.907 288.765 355.025 288.804 355.161C288.913 355.542 289.039 355.922 289.18 356.273C289.432 356.902 289.706 357.358 289.936 357.542L290.004 357.589C290.272 357.745 290.363 358.09 290.206 358.358C290.05 358.627 289.705 358.717 289.437 358.561C288.911 358.254 288.502 357.604 288.136 356.692C287.978 356.301 287.841 355.885 287.722 355.47L287.648 355.198C287.616 355.077 287.592 354.979 287.576 354.91C287.507 354.607 287.697 354.305 288 354.237Z" fill="#9B6160"/>
<path d="M281.81 352.952C282.083 353.012 282.265 353.262 282.25 353.532L282.237 353.623L281.499 356.939C281.431 357.243 281.131 357.434 280.828 357.366C280.555 357.306 280.373 357.056 280.388 356.786L280.401 356.695L281.139 353.379C281.199 353.106 281.449 352.924 281.719 352.939L281.81 352.952Z" fill="#9B6160"/>
<path d="M301.084 354.134C301.356 353.983 301.698 354.082 301.849 354.353C301.999 354.625 301.901 354.968 301.63 355.118C301.186 355.364 300.737 355.597 300.283 355.818C294.251 358.747 287.893 359.341 282.253 358.608C281.92 358.565 281.614 358.52 281.338 358.473L280.767 358.368C280.715 358.357 280.673 358.348 280.641 358.341C280.338 358.272 280.149 357.97 280.218 357.667C280.287 357.365 280.589 357.175 280.892 357.244L281.167 357.3L281.274 357.32C281.597 357.379 281.973 357.438 282.398 357.493C287.839 358.199 293.986 357.625 299.791 354.806C300.227 354.594 300.659 354.37 301.084 354.134Z" fill="#9B6160"/>
<path d="M290.875 335.736C290.985 335.445 291.309 335.298 291.6 335.408L291.844 335.506C292.033 335.583 292.242 335.674 292.467 335.778C293.11 336.073 293.753 336.412 294.357 336.788C296.461 338.102 297.623 339.563 297.197 341.201C297.119 341.502 296.812 341.682 296.511 341.604C296.211 341.526 296.03 341.219 296.108 340.918C296.366 339.928 295.484 338.818 293.761 337.743C293.202 337.394 292.6 337.077 291.997 336.8L291.581 336.615C291.42 336.546 291.291 336.494 291.203 336.46C290.912 336.351 290.765 336.026 290.875 335.736Z" fill="#9B6160"/>
<path fill-rule="evenodd" clip-rule="evenodd" d="M316.065 366.517L318.766 372.564C318.766 372.564 340.305 376.788 350.442 383.967C359.607 390.46 353.865 451.389 350.863 471.814C354.241 496.309 335.097 492.931 335.097 492.931L265.833 493.494C265.833 493.494 256.18 487.023 262.453 470.406C262.195 456.495 247.105 393.711 251.613 382.278C254.239 375.618 277.708 372.702 277.708 372.702L279.19 367.522C279.19 367.522 290.47 370.453 316.065 366.517Z" fill="#ADC6FF"/>
<path d="M253.993 405.073C254.311 405.065 254.574 405.317 254.582 405.635C254.647 408.526 254.792 411.55 255.01 414.694C255.568 422.746 256.587 431.34 257.933 440.108L258.309 442.504C258.941 446.46 259.604 450.224 260.267 453.712L260.669 455.791L261.095 457.913L261.326 459.022C261.393 459.333 261.196 459.639 260.885 459.706C260.575 459.773 260.269 459.576 260.202 459.265L259.908 457.854C259.675 456.712 259.416 455.397 259.137 453.927L258.738 451.795C258.074 448.189 257.417 444.324 256.796 440.283C255.445 431.485 254.423 422.86 253.862 414.774C253.643 411.613 253.498 408.57 253.431 405.661C253.424 405.343 253.676 405.08 253.993 405.073Z" fill="#14214D"/>
<path d="M313.171 375.377C313.483 375.319 313.783 375.525 313.841 375.837C313.899 376.15 313.693 376.45 313.381 376.508C303.279 378.383 293.308 378.479 284.468 377.517L283.494 377.405C282.709 377.311 281.992 377.213 281.347 377.115L280.701 377.013L280.226 376.931C279.914 376.872 279.708 376.571 279.767 376.259C279.826 375.946 280.127 375.741 280.439 375.8L280.993 375.895C281.145 375.92 281.32 375.948 281.519 375.978L282.314 376.093C283.005 376.189 283.766 376.283 284.593 376.373C293.329 377.324 303.192 377.229 313.171 375.377Z" fill="#14214D"/>
<path d="M311.934 460.833C312.23 460.719 312.563 460.866 312.677 461.163C312.791 461.459 312.643 461.792 312.347 461.906C308.458 463.402 302.106 464.573 293.951 465.468C289.063 466.004 283.828 466.409 278.594 466.7L275.95 466.837C275.527 466.858 275.114 466.877 274.711 466.894L272.369 466.988L271.612 467.013C271.294 467.022 271.029 466.772 271.02 466.454C271.011 466.137 271.261 465.872 271.579 465.863L272.878 465.818L275.27 465.717C276.299 465.67 277.389 465.615 278.53 465.551C283.745 465.261 288.96 464.858 293.826 464.324L295.117 464.178C302.558 463.313 308.368 462.204 311.934 460.833Z" fill="#14214D"/>
<path fill-rule="evenodd" clip-rule="evenodd" d="M234.672 645.429C242.079 644.204 248.694 650.202 248.18 657.693C247.586 666.311 246.846 677.957 246.218 690.509C245.573 703.427 245.01 714.131 244.04 715.46C239.762 721.314 231.542 723.269 222.972 728.922C216.192 733.397 214.973 735.59 206.48 736.884C194.441 738.717 200.19 733.833 214.016 718.235C226.335 704.337 225.767 697.604 225.767 697.604L224.939 657.147C224.82 651.365 228.966 646.373 234.672 645.429Z" fill="#C99382"/>
<path fill-rule="evenodd" clip-rule="evenodd" d="M215.346 714.479C206.378 723.791 196.215 731.047 196.301 735.617C196.386 740.186 199.844 744.428 214.902 739.654C225.207 736.385 222.368 734.102 232.302 728.108C237.263 725.114 239.021 725.515 243.621 721.991C246.299 718.78 245.688 702.721 245.688 702.721L228.02 720.806C228.02 720.806 232.745 712.264 229.17 710.255C225.594 708.248 222.288 706.852 220.088 708.323C217.889 709.795 215.346 714.479 215.346 714.479Z" fill="#7D4556"/>
<path fill-rule="evenodd" clip-rule="evenodd" d="M212.976 557.25C216.203 625.256 220.254 691.826 220.254 691.826L248.963 692.807L258.197 556.379C258.197 556.379 256.499 535.992 234.149 536.996C213.983 537.9 212.976 557.25 212.976 557.25Z" fill="#14214D"/>
<path fill-rule="evenodd" clip-rule="evenodd" d="M225.026 534.978C256.066 523.47 295.705 515.101 324.419 509.262C324.419 509.262 345.961 512.136 347.416 533.305C348.844 554.056 325.439 559.338 325.439 559.338L231.295 571.456C231.295 571.456 215.932 573.247 213.095 554.97C210.509 538.296 225.026 534.978 225.026 534.978Z" fill="#14214D"/>
<path d="M280.16 518.31C280.462 518.238 280.765 518.425 280.837 518.727C280.91 519.029 280.723 519.332 280.421 519.405C258.979 524.525 240.618 529.798 225.151 535.526L224.915 535.588C224.843 535.608 224.76 535.633 224.665 535.662C224.262 535.785 223.813 535.945 223.327 536.144C221.937 536.715 220.546 537.488 219.25 538.492C214.826 541.918 212.56 547.092 213.587 554.452L213.66 554.938L213.748 555.414L213.748 555.604L213.665 556.134C213.64 556.303 213.619 556.465 213.601 556.619L213.538 557.223L213.938 565.554C214.3 573.018 214.679 580.637 215.074 588.386L215.223 591.298C216.374 613.758 217.603 636.3 218.837 657.951L220.213 681.696L220.784 691.281L248.982 692.243C249.261 692.252 249.486 692.464 249.521 692.733L249.525 692.824C249.515 693.103 249.304 693.328 249.035 693.363L248.944 693.367L220.235 692.389C219.945 692.379 219.71 692.151 219.693 691.861L218.574 672.955C218.372 669.494 218.162 665.859 217.945 662.065L217.251 649.855C216.405 634.826 215.565 619.433 214.755 603.993L214.099 591.355C213.501 579.682 212.937 568.296 212.415 557.221L212.433 556.975C212.439 556.903 212.447 556.82 212.457 556.726C212.489 556.416 212.534 556.073 212.593 555.701L212.623 555.514L212.539 555.055C211.297 547.048 213.737 541.339 218.562 537.603C219.943 536.533 221.421 535.711 222.9 535.103C223.315 534.933 223.706 534.79 224.069 534.671L224.335 534.586C224.599 534.505 224.792 534.454 224.83 534.451C240.275 528.725 258.677 523.44 280.16 518.31Z" fill="#253368"/>
<path fill-rule="evenodd" clip-rule="evenodd" d="M271.758 475.761H212.91C211.258 475.761 209.797 474.693 209.296 473.121L189.246 410.185C188.467 407.74 190.291 405.244 192.858 405.244H251.707C253.357 405.244 254.818 406.311 255.319 407.884L275.37 470.82C276.15 473.265 274.324 475.761 271.758 475.761Z" fill="#4E5C93"/>
<path fill-rule="evenodd" clip-rule="evenodd" d="M267.681 475.761H208.833C207.181 475.761 205.72 474.693 205.219 473.121L185.169 410.185C184.39 407.74 186.214 405.244 188.779 405.244H247.63C249.28 405.244 250.741 406.311 251.242 407.884L271.293 470.82C272.073 473.265 270.248 475.761 267.681 475.761Z" fill="#253368"/>
<path fill-rule="evenodd" clip-rule="evenodd" d="M333.681 470.465C333.681 470.465 337.497 491.114 356.352 487.3C375.58 483.409 370.904 462.667 370.904 462.667C370.904 462.667 370.24 449.5 366.723 432.115C363.974 418.529 360.141 400.817 357.554 392.293C354.764 383.092 345.336 377.957 336.504 379.744C323.082 382.46 319.832 393.943 321.3 403.396C322.728 412.586 325.037 427.714 326.838 437.809C330.297 457.22 333.681 470.465 333.681 470.465Z" fill="#ADC6FF"/>
<path fill-rule="evenodd" clip-rule="evenodd" d="M251.327 481.427C251.327 481.427 269.368 484.238 274.204 477.15C278.584 470.732 271.15 464.034 271.15 464.034C271.15 464.034 264.743 459.461 256.507 456.413C251.108 454.415 241.415 449.087 239.65 451.575C237.349 454.82 248.149 458.648 248.291 461.54C248.578 467.396 230.95 463.16 227.725 464.007C221.417 465.665 229.661 478.22 251.327 481.427Z" fill="#C99382"/>
<path d="M227.011 466.877C227.132 466.591 227.462 466.457 227.748 466.578C228.634 466.953 229.56 467.283 230.523 467.572C234.805 468.855 239.307 469.22 243.225 469.055L243.781 469.028C244.158 469.007 244.422 468.986 244.557 468.973C244.866 468.942 245.141 469.167 245.172 469.476C245.203 469.786 244.978 470.061 244.669 470.092L244.153 470.133C244.06 470.139 243.956 470.145 243.844 470.151C239.68 470.383 234.832 470.037 230.2 468.649C229.199 468.349 228.235 468.005 227.31 467.615C227.024 467.494 226.89 467.164 227.011 466.877Z" fill="#9B6160"/>
<path d="M228.548 471.125C228.682 470.844 229.017 470.725 229.298 470.858L229.572 470.98L229.962 471.14C230.103 471.196 230.255 471.254 230.419 471.315C231.36 471.666 232.467 472.017 233.731 472.345C237.357 473.287 241.516 473.852 246.139 473.85C246.45 473.85 246.702 474.102 246.702 474.413C246.702 474.723 246.45 474.975 246.14 474.975C241.417 474.977 237.164 474.399 233.448 473.434C232.146 473.096 231.002 472.733 230.026 472.369C229.855 472.305 229.694 472.244 229.545 472.184L229.132 472.015C228.977 471.949 228.871 471.901 228.814 471.874C228.534 471.741 228.415 471.405 228.548 471.125Z" fill="#9B6160"/>
<path d="M235.53 476.409C235.607 476.108 235.914 475.928 236.215 476.006C239.441 476.841 242.33 477.362 244.863 477.63L245.61 477.703C246.929 477.82 247.962 477.847 248.697 477.822L248.848 477.816C249.158 477.795 249.426 478.03 249.447 478.34C249.468 478.649 249.233 478.918 248.923 478.938L248.735 478.947C247.815 478.978 246.478 478.932 244.744 478.749C242.157 478.475 239.213 477.944 235.933 477.095C235.632 477.017 235.452 476.71 235.53 476.409Z" fill="#9B6160"/>
<path fill-rule="evenodd" clip-rule="evenodd" d="M349.819 452.51C349.819 452.51 371.358 453.209 371.362 471.229C371.367 489.812 350.673 490.099 350.673 490.099C350.673 490.099 336.105 489.941 318.153 489.824C307.191 489.754 295.089 489.433 286.336 487.942C276.858 486.325 275.916 481.045 275.913 472.036C275.913 461.336 276.999 456.914 286.47 455.561C295.497 454.273 307.783 454.127 317.298 453.583C335.442 452.546 349.819 452.51 349.819 452.51Z" fill="#ADC6FF"/>
<path fill-rule="evenodd" clip-rule="evenodd" d="M268.878 482.214L268.872 461.379L282.951 459.875L282.957 483.711L268.878 482.214Z" fill="#ADC6FF"/>
<path d="M341.268 452.427C341.586 452.414 341.853 452.662 341.866 452.979C341.878 453.296 341.631 453.564 341.313 453.576L340.118 453.614L322.221 453.97C319.663 454.03 317.891 454.085 316.766 454.143L314.818 454.248C314.054 454.287 313.244 454.326 312.319 454.368L302.19 454.805L299.518 454.937C293.732 455.242 289.423 455.6 285.706 456.131C281.085 456.791 278.579 458.176 277.228 460.72C277.154 460.861 277.025 460.963 276.874 461.005L276.781 461.023L268.603 461.896L268.607 481.697L277.039 482.593C277.182 482.608 277.312 482.676 277.406 482.781L277.47 482.866C278.899 485.217 281.407 486.661 285.587 487.374C292.964 488.632 302.706 489.137 316.511 489.244L324.497 489.299L340.309 489.43L349.819 489.523L349.982 489.518C350.145 489.512 350.378 489.499 350.672 489.476C351.363 489.422 352.135 489.331 352.967 489.195C355.344 488.807 357.719 488.134 359.93 487.111C366.094 484.258 369.81 479.3 369.938 471.648L369.94 471.2L369.937 471.107C369.937 470.789 370.195 470.531 370.512 470.531C370.798 470.531 371.035 470.74 371.08 471.013L371.092 471.228C371.095 479.599 367.073 485.073 360.414 488.155C358.099 489.226 355.625 489.927 353.153 490.331C352.461 490.444 351.808 490.527 351.204 490.585L350.761 490.623C350.511 490.642 350.301 490.655 350.132 490.663L349.8 490.673L336.766 490.548C333.971 490.524 331.069 490.5 328.088 490.477L314.919 490.38C301.887 490.247 292.563 489.73 285.394 488.508C281.19 487.791 278.464 486.328 276.805 483.951L276.64 483.708L267.971 482.786C267.711 482.758 267.507 482.56 267.465 482.31L267.457 482.214L267.453 461.379C267.453 461.118 267.628 460.894 267.872 460.825L267.967 460.807L276.362 459.91L276.482 459.707C278.034 457.17 280.704 455.745 285.135 455.053L285.543 454.993L286.818 454.82C290.282 454.376 294.283 454.061 299.452 453.788L305.277 453.516L312.936 453.188L317.014 452.979C318.698 452.901 321.568 452.826 325.985 452.739L338.309 452.506C339.698 452.476 340.66 452.451 341.268 452.427Z" fill="#14214D"/>
<path d="M345.739 389.307C346.055 389.276 346.337 389.508 346.368 389.824C346.399 390.14 346.167 390.422 345.851 390.452C338.74 391.147 333.656 396.055 330.261 403.863C328.962 406.851 328.007 410.058 327.344 413.265C327.151 414.201 326.995 415.081 326.872 415.889L326.802 416.365C326.756 416.691 326.719 416.98 326.69 417.229L326.665 417.454L332.427 453.139C332.472 453.421 332.304 453.689 332.041 453.776L331.95 453.799C331.668 453.844 331.401 453.676 331.313 453.413L331.291 453.323L325.517 417.566L325.512 417.421L325.547 417.097C325.577 416.839 325.615 416.54 325.663 416.204C325.798 415.246 325.981 414.18 326.218 413.032C326.895 409.752 327.872 406.472 329.206 403.404C332.751 395.252 338.139 390.049 345.739 389.307Z" fill="#14214D"/>
<path d="M342.418 492.932C342.729 492.932 342.98 493.184 342.98 493.494C342.98 493.774 342.776 494.006 342.509 494.05L342.418 494.057H265.832C265.522 494.057 265.27 493.805 265.27 493.494C265.27 493.215 265.474 492.983 265.741 492.939L265.832 492.932H342.418Z" fill="#253368"/>
<path d="M341.572 501.66C341.882 501.66 342.134 501.912 342.134 502.223C342.134 502.502 341.93 502.734 341.663 502.778L341.572 502.785H264.706C264.395 502.785 264.143 502.533 264.143 502.223C264.143 501.943 264.347 501.711 264.615 501.667L264.706 501.66H341.572Z" fill="#253368"/>
<path d="M288.806 492.792C289.085 492.805 289.307 493.02 289.338 493.289L289.341 493.38L288.919 502.25C288.905 502.56 288.641 502.8 288.331 502.785C288.052 502.772 287.83 502.557 287.799 502.288L287.796 502.196L288.217 493.327C288.232 493.017 288.495 492.777 288.806 492.792Z" fill="#253368"/>
</svg>
