<svg width="530" height="974" viewBox="0 0 530 974" fill="none" xmlns="http://www.w3.org/2000/svg">
<path fill-rule="evenodd" clip-rule="evenodd" d="M202.016 530.085L209.024 556.861L317.47 543.325C329.194 541.739 337.099 531.475 334.826 520.788C332.552 510.102 321.022 503.328 309.51 505.916L202.016 530.085Z" fill="#ADC6FF"/>
<path d="M218.046 528.455C218.43 528.375 218.811 528.571 218.944 528.9L218.975 528.993L225.106 553.94C225.201 554.324 224.938 554.706 224.52 554.793C224.137 554.873 223.755 554.677 223.622 554.347L223.592 554.254L217.46 529.308C217.365 528.923 217.628 528.541 218.046 528.455Z" fill="#14214D"/>
<path fill-rule="evenodd" clip-rule="evenodd" d="M214.001 547.336C212.691 547.571 211.835 548.738 212.093 549.942C212.349 551.147 213.618 551.931 214.93 551.696C216.239 551.461 217.093 550.293 216.837 549.089C216.58 547.885 215.312 547.1 214.001 547.336Z" fill="white"/>
<path fill-rule="evenodd" clip-rule="evenodd" d="M306.598 542.904C317.691 544.727 328.358 538.138 330.711 528.011L350.517 442.731C353.356 430.511 344.614 418.56 331.229 416.36C317.843 414.16 305.136 422.587 303.189 434.952L289.599 521.256C287.986 531.504 295.506 541.08 306.598 542.904Z" fill="#ADC6FF"/>
<path fill-rule="evenodd" clip-rule="evenodd" d="M198.788 599.72C198.915 612.043 209.621 622.07 223.026 622.421L372.486 626.327C389.836 626.781 404.124 613.9 403.964 597.952C403.798 582.004 389.251 569.371 371.913 570.124L222.56 576.606C209.163 577.187 198.664 587.397 198.788 599.72Z" fill="#253368"/>
<path fill-rule="evenodd" clip-rule="evenodd" d="M136.378 738.034C136.378 738.034 112.038 751.755 87.5603 742.613C71.533 736.627 77.056 757.35 105.137 767.923C121.144 773.951 122.835 765.425 130.726 770.182C135.302 772.938 146.041 776.333 148.766 773.428C153.525 768.351 154.471 764.934 159.157 758.451C181.976 726.883 174.784 712.658 136.378 738.034Z" fill="#253368"/>
<path fill-rule="evenodd" clip-rule="evenodd" d="M235.098 765.988C235.098 765.988 230.439 791.875 206.887 802.882C191.466 810.088 212.124 819.827 239.211 807.257C254.655 800.092 248.753 793.333 257.833 790.969C263.096 789.599 272.92 784.366 272.317 780.571C271.26 773.942 269.071 771.047 266.81 763.547C255.796 727.025 239.39 722.7 235.098 765.988Z" fill="#253368"/>
<path fill-rule="evenodd" clip-rule="evenodd" d="M271.58 758.28L247.115 598.672C245.134 585.747 231.685 577.045 217.775 579.686C204.34 582.237 195.774 594.387 198.727 606.694L236.572 764.338C236.572 764.338 252.115 769.285 271.58 758.28Z" fill="#253368"/>
<path fill-rule="evenodd" clip-rule="evenodd" d="M401.393 439.274C401.393 440.125 402.141 440.814 403.068 440.814C403.993 440.814 404.743 440.125 404.743 439.274C404.743 438.424 403.993 437.735 403.068 437.735C402.141 437.735 401.393 438.424 401.393 439.274Z" fill="#4E5C93"/>
<path fill-rule="evenodd" clip-rule="evenodd" d="M351.085 409.699L348.889 384.284L386.545 373.352L393.041 406.686C394.279 414.276 388.794 422.197 381.349 425.68C380.576 426.041 379.772 426.375 378.936 426.672C366.348 431.139 351.56 422.092 351.085 409.699Z" fill="#997C79"/>
<path fill-rule="evenodd" clip-rule="evenodd" d="M395.984 355.81C396.644 380.841 380.292 394.772 362.799 398.393C341.944 402.709 334.103 386.838 330.736 362.563C327.316 337.914 337.171 327.753 356.842 324.035C377.349 320.158 395.316 330.455 395.984 355.81Z" fill="#997C79"/>
<path fill-rule="evenodd" clip-rule="evenodd" d="M382.127 361.716C382.382 359.713 382.367 356.426 385.45 354.621C389.694 352.134 394.641 356.242 394.965 361.457C395.358 367.774 390.124 372.484 386.762 373.05C387.716 379.201 388.197 382.934 388.197 382.934C388.197 382.934 395.521 374.277 397.639 363.144C400.945 345.775 394.177 324.426 369.957 322.46C335.14 321.854 331.491 342.623 331.491 342.623L370.061 335.858L371.356 347.894C371.356 347.894 378.314 347.128 379.612 361.408L382.127 361.716Z" fill="#604346"/>
<path d="M363.646 351.688L367.713 352.156C368.138 352.205 368.44 352.562 368.387 352.953C368.338 353.311 368.008 353.574 367.625 353.577L367.52 353.572L363.56 353.116L351.6 354.81C351.212 354.865 350.846 354.646 350.738 354.309L350.715 354.214C350.655 353.857 350.894 353.521 351.261 353.421L351.364 353.4L363.432 351.691L363.646 351.688Z" fill="#604346"/>
<path fill-rule="evenodd" clip-rule="evenodd" d="M375.401 382.184C369.867 377.143 369.269 371.934 351.035 375.215C342.163 376.812 338.168 380.249 337.624 387.076C342.003 396.752 349.59 402.143 361.311 399.366C385.938 393.533 385.245 369.904 385.245 369.904C385.245 369.904 381.887 371.303 381.081 373.208C378.857 378.477 377.039 380.001 375.401 382.184Z" fill="#7C5B4D"/>
<path fill-rule="evenodd" clip-rule="evenodd" d="M345.743 380.988C345.743 380.988 352.272 380.295 362.004 377.837C362.004 377.837 361.278 381.839 354.154 383.041C348.562 383.984 345.743 380.988 345.743 380.988Z" fill="white"/>
<path d="M361.799 377.149C357.866 378.142 354.188 378.917 350.848 379.501L350.084 379.633C349.023 379.812 348.065 379.959 347.217 380.079L346.089 380.229C345.897 380.252 345.752 380.269 345.654 380.28C345.034 380.345 344.748 381.021 345.155 381.455C345.471 381.791 346.061 382.261 346.928 382.724C348.914 383.783 351.38 384.235 354.294 383.743C357.063 383.276 359.143 382.367 360.617 381.136C362.002 379.978 362.618 378.794 362.77 377.954C362.864 377.44 362.345 377.011 361.799 377.149ZM360.658 378.908L360.569 379.035C360.307 379.39 359.978 379.741 359.572 380.08C358.32 381.126 356.505 381.919 354.014 382.34L353.637 382.398C351.27 382.728 349.301 382.339 347.707 381.49L347.653 381.46L348.828 381.285C349.313 381.21 349.826 381.127 350.364 381.036C353.156 380.565 356.191 379.96 359.42 379.204L360.658 378.908Z" fill="#604346"/>
<path d="M341.74 354.896C342.096 354.741 342.514 354.856 342.723 355.15L342.774 355.235L344.711 358.993C344.745 359.059 344.767 359.13 344.778 359.202L344.785 359.311L344.499 374.239C344.489 374.81 345.007 375.257 345.61 375.23L345.732 375.218L355.423 373.75C355.846 373.685 356.245 373.949 356.315 374.337C356.379 374.694 356.144 375.032 355.778 375.135L355.675 375.157L345.984 376.625C344.43 376.861 343.019 375.792 342.949 374.368L342.947 374.214L343.229 359.452L341.371 355.846C341.203 355.519 341.328 355.135 341.648 354.943L341.74 354.896Z" fill="#604346"/>
<path d="M357.602 386.402C358.025 386.34 358.423 386.605 358.491 386.994C358.553 387.35 358.316 387.688 357.95 387.789L357.847 387.811L353.206 388.495C352.783 388.557 352.385 388.292 352.317 387.903C352.255 387.546 352.492 387.209 352.858 387.107L352.961 387.086L357.602 386.402Z" fill="#604346"/>
<path d="M341.387 354.932C341.811 354.874 342.206 355.143 342.269 355.533C342.327 355.89 342.085 356.225 341.718 356.323L341.615 356.343L331.362 357.744C330.938 357.802 330.543 357.533 330.48 357.144C330.422 356.787 330.664 356.452 331.031 356.354L331.134 356.333L341.387 354.932Z" fill="#604346"/>
<path d="M374.213 392.614C374.543 392.362 375.032 392.404 375.306 392.707C375.58 393.01 375.535 393.46 375.205 393.711C373.391 395.095 371.427 396.237 369.337 397.154C363.437 399.741 357.248 400.352 351.872 399.859L351.397 399.811C351.322 399.803 351.251 399.794 351.182 399.786L350.781 399.734C350.726 399.726 350.683 399.72 350.653 399.715C350.231 399.645 349.949 399.275 350.025 398.887C350.1 398.499 350.503 398.241 350.925 398.31L351.215 398.351C351.418 398.378 351.69 398.408 352.026 398.439C357.145 398.908 363.063 398.325 368.668 395.866C370.645 394.999 372.5 393.921 374.213 392.614Z" fill="#604346"/>
<path d="M388.989 356.764C389.31 356.785 389.551 357.041 389.529 357.336C389.508 357.601 389.28 357.807 389.001 357.831L388.906 357.831C388.444 357.815 387.832 357.913 387.246 358.221C386.061 358.844 385.4 360.138 385.572 362.394L385.578 362.463L385.752 362.473C387.278 362.579 388.301 363.18 388.699 364.165L388.754 364.316C389.091 365.345 388.698 366.607 387.824 367.572C387.618 367.799 387.251 367.83 387.004 367.64C386.757 367.451 386.723 367.114 386.929 366.887C387.571 366.179 387.852 365.276 387.639 364.624C387.406 363.912 386.591 363.487 385.066 363.528C384.764 363.536 384.505 363.331 384.47 363.055C384.094 360.063 384.958 358.191 386.668 357.292C387.391 356.911 388.125 356.768 388.74 356.76L388.989 356.764Z" fill="#604346"/>
<path d="M361.942 358.629C362.364 358.558 362.769 358.814 362.846 359.201C363.25 361.215 361.865 363.15 359.732 363.511C357.602 363.87 355.558 362.513 355.156 360.499C355.079 360.112 355.358 359.74 355.78 359.669C356.202 359.598 356.606 359.855 356.684 360.242C356.934 361.494 358.181 362.322 359.452 362.108C360.725 361.892 361.57 360.712 361.319 359.46C361.242 359.072 361.521 358.7 361.942 358.629Z" fill="#604346"/>
<path d="M340.657 362.221C341.079 362.149 341.484 362.406 341.561 362.793C341.965 364.807 340.58 366.741 338.448 367.102C336.317 367.462 334.274 366.105 333.872 364.091C333.794 363.704 334.073 363.332 334.495 363.261C334.917 363.19 335.321 363.446 335.399 363.834C335.649 365.086 336.896 365.914 338.167 365.699C339.44 365.484 340.286 364.304 340.034 363.052C339.957 362.664 340.236 362.292 340.657 362.221Z" fill="#604346"/>
<path fill-rule="evenodd" clip-rule="evenodd" d="M423.435 562.094C423.435 562.094 336.513 568.126 330.608 560.266C328.008 556.806 326.144 574.091 321.379 602.614C329.059 615.657 343.617 630.02 362.868 629.529C394.347 628.725 423.164 621.574 426.406 602.213C428.738 588.286 426.797 573.389 423.435 562.094Z" fill="#4E5C93"/>
<path fill-rule="evenodd" clip-rule="evenodd" d="M329.272 552.979L328.415 562.588C328.415 562.588 336.79 563.921 366.056 565.296C395.748 566.692 423.355 563.541 423.355 563.541L423.486 554.795C423.486 554.795 363.741 556.416 329.272 552.979Z" fill="black"/>
<path fill-rule="evenodd" clip-rule="evenodd" d="M342.449 562.662L342.564 555.658C342.597 553.685 344.361 552.151 346.409 552.328C351.317 552.754 359.994 553.367 366.312 553.056C368.377 552.955 370.066 554.597 369.97 556.58L369.619 563.73C369.537 565.4 368.2 566.76 366.467 566.947C362.346 567.394 354.424 567.812 345.285 566.031C343.62 565.707 342.421 564.295 342.449 562.662Z" fill="#E4EBF7"/>
<path fill-rule="evenodd" clip-rule="evenodd" d="M345.645 561.835L345.714 556.88C345.733 555.485 347.09 554.403 348.669 554.534C352.456 554.848 359.15 555.305 364.024 555.102C365.615 555.035 366.924 556.202 366.856 557.605L366.608 562.661C366.55 563.844 365.522 564.803 364.185 564.931C361.012 565.235 354.9 565.51 347.844 564.226C346.559 563.992 345.63 562.989 345.645 561.835Z" fill="black"/>
<path fill-rule="evenodd" clip-rule="evenodd" d="M219.577 603.82C219.704 616.143 230.41 626.17 243.815 626.521L393.275 630.427C410.625 630.881 424.914 618 424.754 602.052C424.588 586.104 410.04 573.471 392.702 574.225L243.349 580.706C229.952 581.287 219.453 591.497 219.577 603.82Z" fill="#4E5C93"/>
<path fill-rule="evenodd" clip-rule="evenodd" d="M166.763 750.186L264.478 616.327C272.391 605.487 268.697 590.759 256.419 584.195C244.564 577.855 229.358 581.649 222.619 592.627L136.294 733.228C136.294 733.228 144.275 746.443 166.763 750.186Z" fill="#4E5C93"/>
<path fill-rule="evenodd" clip-rule="evenodd" d="M413.972 548.036C425.179 549.115 435.297 541.832 436.844 531.575L449.865 445.2C451.73 432.824 442.069 421.487 428.544 420.186C415.02 418.884 403.011 428.135 402.045 440.598L395.306 527.579C394.507 537.907 402.764 546.957 413.972 548.036Z" fill="#ADC6FF"/>
<path fill-rule="evenodd" clip-rule="evenodd" d="M423.637 554.186C388.516 557.399 342.686 559.989 328.33 552.398C322.076 549.093 322.657 544.57 325.708 537.133C325.708 537.133 311.212 459.937 313.834 420.166C325.492 415.347 332.757 414.492 346.185 412.132C352.927 410.948 363.899 416.634 369.844 416.15C380.571 415.276 393.062 409.999 395.638 410.526C421.673 415.839 436.246 421.774 436.246 421.774C436.246 421.774 429.74 504.528 420.558 534.657C431.926 554.743 423.637 554.186 423.637 554.186Z" fill="#ADC6FF"/>
<path fill-rule="evenodd" clip-rule="evenodd" d="M350.609 405.17L343.03 414.543L352.647 430.88L367.221 416.418L350.609 405.17Z" fill="#ADC6FF"/>
<path fill-rule="evenodd" clip-rule="evenodd" d="M367.513 416.418L393.035 402.558L398.116 411.062L382.377 429.273L367.513 416.418Z" fill="#ADC6FF"/>
<path fill-rule="evenodd" clip-rule="evenodd" d="M356.983 425.386L367.804 416.953L378.88 427.13L372.714 439.613L360.542 439.468L356.983 425.386Z" fill="#253368"/>
<path fill-rule="evenodd" clip-rule="evenodd" d="M360.513 439.679L372.528 440.065L380.548 518.466C380.617 519.138 380.401 519.808 379.943 520.336L362.29 540.67C361.02 542.133 358.537 541.929 357.569 540.281L344.483 517.95C344.171 517.418 344.07 516.805 344.196 516.211L360.513 439.679Z" fill="#253368"/>
<path d="M396.114 412.789C396.376 412.477 396.863 412.419 397.203 412.66C397.512 412.878 397.592 413.268 397.407 413.572L397.344 413.66L383.962 429.613C383.713 429.91 383.262 429.975 382.929 429.778L382.841 429.718L367.267 417.394L353.299 430.48C352.962 430.795 352.407 430.753 352.127 430.413L352.068 430.33L342.644 414.892C342.434 414.548 342.567 414.114 342.941 413.921C343.284 413.744 343.71 413.832 343.941 414.113L343.998 414.194L352.915 428.802L366.668 415.918C366.926 415.677 367.328 415.638 367.632 415.812L367.729 415.877L383.232 428.145L396.114 412.789Z" fill="#14214D"/>
<path d="M371.885 439.629C372.099 439.629 372.273 439.788 372.273 439.985C372.273 440.158 372.14 440.301 371.963 440.335L371.885 440.342H360.227C360.012 440.342 359.839 440.182 359.839 439.985C359.839 439.813 359.972 439.669 360.149 439.636L360.227 439.629H371.885Z" fill="#14214D"/>
<path d="M316.527 464.767C316.954 464.728 317.334 465.015 317.376 465.407L317.641 467.864C319.852 488.213 322.121 505.339 324.33 519.369L324.805 522.338C325.349 525.693 325.859 528.665 326.33 531.262L326.776 533.673L327.208 535.89C327.273 536.217 327.32 536.444 327.348 536.572C327.384 536.743 327.351 536.921 327.254 537.072L327.119 537.294C327.062 537.392 326.994 537.514 326.916 537.657C326.654 538.141 326.391 538.688 326.146 539.285C325.198 541.588 324.78 543.927 325.177 546.077C325.711 548.966 327.684 551.274 331.489 552.836C331.881 552.997 332.056 553.419 331.881 553.779C331.706 554.138 331.247 554.3 330.856 554.139C326.58 552.383 324.268 549.679 323.646 546.316C323.195 543.877 323.656 541.299 324.693 538.78C324.905 538.265 325.129 537.785 325.356 537.344L325.609 536.87L325.77 536.587L325.608 535.786C325.477 535.125 325.329 534.36 325.166 533.493L324.798 531.497C324.258 528.52 323.667 525.053 323.033 521.085L322.528 517.872C320.31 503.573 318.039 486.174 315.83 465.546C315.788 465.154 316.1 464.805 316.527 464.767Z" fill="#14214D"/>
<path fill-rule="evenodd" clip-rule="evenodd" d="M302.697 537.801L310.375 564.421L418.455 548.588C430.134 546.755 437.78 536.324 435.238 525.689C432.696 515.054 421 508.526 409.556 511.357L302.697 537.801Z" fill="#ADC6FF"/>
<path d="M318.681 535.831C319.062 535.743 319.448 535.931 319.59 536.257L319.623 536.349L326.38 561.159C326.484 561.542 326.231 561.929 325.815 562.025C325.434 562.112 325.048 561.924 324.906 561.598L324.874 561.506L318.116 536.696C318.012 536.314 318.265 535.926 318.681 535.831Z" fill="#14214D"/>
<path fill-rule="evenodd" clip-rule="evenodd" d="M315.113 554.793C313.808 555.055 312.984 556.241 313.269 557.439C313.555 558.638 314.845 559.395 316.15 559.133C317.454 558.869 318.279 557.685 317.991 556.486C317.706 555.288 316.417 554.53 315.113 554.793Z" fill="white"/>
<path d="M401.987 511.515C402.4 511.409 402.828 511.63 402.944 512.01C403.05 512.357 402.856 512.717 402.505 512.857L402.405 512.889L303.642 538.298L310.943 563.606L425.671 545.243C426.058 545.181 426.428 545.395 426.544 545.73L426.569 545.824C426.636 546.18 426.404 546.52 426.04 546.626L425.937 546.649L310.508 565.124C310.148 565.182 309.798 565 309.66 564.698L309.625 564.604L301.947 537.984C301.847 537.638 302.041 537.284 302.389 537.146L302.488 537.114L401.987 511.515Z" fill="#14214D"/>
<path d="M402.54 443.694C402.933 443.708 403.247 443.987 403.284 444.337L403.287 444.434L400.516 513.781C400.5 514.175 400.14 514.482 399.711 514.468C399.319 514.455 399.005 514.175 398.967 513.826L398.964 513.729L401.736 444.381C401.751 443.987 402.112 443.68 402.54 443.694Z" fill="#14214D"/>
<path fill-rule="evenodd" clip-rule="evenodd" d="M259.728 578.961L343.917 569.95L262.053 543.772L192.425 557.573L259.728 578.961Z" fill="#4E5C93"/>
<path fill-rule="evenodd" clip-rule="evenodd" d="M256.815 573.485L317.959 566.94L259.941 547.877L207.934 557.95L256.815 573.485Z" fill="#253368"/>
<path fill-rule="evenodd" clip-rule="evenodd" d="M343.69 573.915L343.932 569.977L258.039 578.544L259.297 582.804L343.69 573.915Z" fill="#FF7A46"/>
<path d="M248.187 550.948C248.253 550.801 248.422 550.721 248.586 550.75L248.655 550.77L295.744 568.678C295.927 568.748 296.014 568.941 295.938 569.109C295.872 569.256 295.703 569.336 295.539 569.307L295.469 569.287L248.381 551.379C248.198 551.309 248.111 551.116 248.187 550.948Z" fill="#CCD7EE"/>
<path d="M254.631 548.853C254.695 548.704 254.862 548.622 255.026 548.649L255.096 548.667L307.791 567.764C307.976 567.831 308.066 568.022 307.994 568.192C307.93 568.34 307.763 568.422 307.598 568.395L307.528 568.377L254.833 549.28C254.649 549.213 254.558 549.022 254.631 548.853Z" fill="#CCD7EE"/>
<path d="M247.288 554.915C247.356 554.769 247.527 554.691 247.69 554.722L247.759 554.742L287.276 570.365C287.458 570.437 287.542 570.631 287.464 570.798C287.395 570.945 287.225 571.022 287.062 570.991L286.993 570.971L247.476 555.348C247.294 555.276 247.21 555.082 247.288 554.915Z" fill="#CCD7EE"/>
<path d="M236.243 555.509C236.311 555.362 236.482 555.285 236.645 555.316L236.714 555.336L276.231 570.959C276.413 571.031 276.497 571.225 276.419 571.392C276.35 571.538 276.18 571.616 276.017 571.585L275.948 571.565L236.431 555.942C236.249 555.87 236.165 555.676 236.243 555.509Z" fill="#CCD7EE"/>
<path d="M226.014 556.714C226.082 556.568 226.252 556.49 226.416 556.521L226.485 556.542L266.002 572.165C266.184 572.237 266.268 572.43 266.19 572.598C266.121 572.744 265.951 572.821 265.788 572.79L265.718 572.77L226.201 557.147C226.019 557.075 225.935 556.881 226.014 556.714Z" fill="#CCD7EE"/>
<path d="M308.131 564.147C308.328 564.132 308.501 564.267 308.518 564.448C308.532 564.607 308.421 564.749 308.261 564.791L308.189 564.804L255.941 568.736C255.744 568.751 255.571 568.616 255.555 568.434C255.541 568.275 255.651 568.134 255.811 568.091L255.883 568.079L308.131 564.147Z" fill="#CCD7EE"/>
<path d="M296.767 559.975C296.965 559.96 297.138 560.095 297.154 560.277C297.168 560.436 297.058 560.577 296.897 560.62L296.826 560.632L244.576 564.564C244.379 564.579 244.206 564.444 244.19 564.263C244.176 564.104 244.286 563.962 244.446 563.92L244.518 563.907L296.767 559.975Z" fill="#CCD7EE"/>
<path d="M282.583 556.944C282.781 556.929 282.954 557.064 282.97 557.245C282.984 557.404 282.874 557.546 282.713 557.589L282.642 557.601L230.394 561.533C230.197 561.548 230.023 561.413 230.007 561.231C229.993 561.073 230.104 560.931 230.264 560.888L230.336 560.876L282.583 556.944Z" fill="#CCD7EE"/>
<path d="M273.211 549.968C273.408 549.954 273.582 550.089 273.598 550.27C273.612 550.429 273.501 550.57 273.341 550.613L273.27 550.625L221.022 554.558C220.824 554.572 220.651 554.437 220.635 554.256C220.621 554.097 220.731 553.956 220.892 553.913L220.963 553.901L273.211 549.968Z" fill="#CCD7EE"/>
<path fill-rule="evenodd" clip-rule="evenodd" d="M259.231 582.805L255.458 582.962L191.797 561.913L170.209 460.753L239.103 476.113L259.231 582.805Z" fill="#FF7A46"/>
<path fill-rule="evenodd" clip-rule="evenodd" d="M255.323 582.963L188.191 560.794C187.576 560.592 187.122 560.108 186.997 559.52L166.133 462.297C165.87 461.075 167.075 460.015 168.393 460.311L233.739 474.969C234.456 475.129 234.999 475.666 235.125 476.333L255.323 582.963Z" fill="#FAAD14"/>
<path fill-rule="evenodd" clip-rule="evenodd" d="M266.23 538.138L302.81 537.201L308.056 555.948C301.206 560.367 280.512 557.152 280.512 557.152L266.378 563.58C264.192 564.383 263.67 563.045 262.588 563.045C259.673 563.045 259.673 560.233 259.673 560.233C258.668 559.793 257.051 560.501 256.613 557.956C256.613 557.956 254.572 557.823 254.426 555.546C254.35 554.343 266.23 538.138 266.23 538.138Z" fill="#997C79"/>
<path d="M284.05 550.601C284.367 550.548 284.67 550.741 284.728 551.031C284.779 551.293 284.614 551.545 284.35 551.631L284.259 551.653L274.815 553.23L264.451 562.491C264.246 562.674 263.932 562.691 263.707 562.543L263.628 562.48C263.428 562.292 263.41 562.003 263.571 561.797L263.639 561.724L274.131 552.35C274.193 552.294 274.268 552.253 274.349 552.227L274.433 552.207L284.05 550.601Z" fill="#604346"/>
<path d="M279.006 546.07C279.308 545.971 279.642 546.116 279.75 546.394C279.847 546.645 279.729 546.918 279.484 547.042L279.397 547.078L271.371 549.711L261.559 559.523C261.366 559.717 261.054 559.749 260.82 559.614L260.737 559.555C260.526 559.378 260.491 559.09 260.638 558.876L260.702 558.799L270.612 548.89C270.654 548.848 270.704 548.812 270.759 548.784L270.844 548.749L279.006 546.07Z" fill="#604346"/>
<path d="M274.14 541.806C274.431 541.679 274.778 541.792 274.917 542.059C275.041 542.299 274.954 542.581 274.724 542.728L274.642 542.772L268.351 545.531L258.962 556.282C258.784 556.487 258.474 556.539 258.231 556.418L258.144 556.365C257.921 556.201 257.864 555.916 257.996 555.693L258.054 555.613L267.526 544.767C267.562 544.725 267.605 544.688 267.653 544.658L267.729 544.619L274.14 541.806Z" fill="#604346"/>
</svg>
